<svg width="63" height="56" viewBox="0 0 63 56" fill="none" xmlns="http://www.w3.org/2000/svg">
<g clip-path="url(#clip0_1094_1029)">
<path d="M47.1812 11.5999C47.1812 11.5999 46.8688 9.39365 45.9062 8.4249C44.6875 7.1499 43.325 7.14365 42.7 7.06865C38.225 6.74365 31.5063 6.74365 31.5063 6.74365H31.4937C31.4937 6.74365 24.775 6.74365 20.3 7.06865C19.675 7.14365 18.3125 7.1499 17.0938 8.4249C16.1313 9.39365 15.825 11.5999 15.825 11.5999C15.825 11.5999 15.5 14.1937 15.5 16.7812V19.2062C15.5 21.7937 15.8187 24.3874 15.8187 24.3874C15.8187 24.3874 16.1312 26.5937 17.0875 27.5624C18.3063 28.8374 19.9063 28.7937 20.6188 28.9312C23.1813 29.1749 31.5 29.2499 31.5 29.2499C31.5 29.2499 38.225 29.2374 42.7 28.9187C43.325 28.8437 44.6875 28.8374 45.9062 27.5624C46.8688 26.5937 47.1812 24.3874 47.1812 24.3874C47.1812 24.3874 47.5 21.7999 47.5 19.2062V16.7812C47.5 14.1937 47.1812 11.5999 47.1812 11.5999ZM28.1938 22.1499V13.1562L36.8375 17.6687L28.1938 22.1499Z" fill="black"/>
</g>
<path d="M9.4873 53V48.366L6.0433 42.444H7.3733L10.0753 47.162L12.7633 42.444H14.1073L10.6493 48.366V53H9.4873ZM17.1743 53.196C16.5116 53.196 15.9189 53.042 15.3963 52.734C14.8829 52.426 14.4769 52.0107 14.1783 51.488C13.8889 50.956 13.7443 50.3633 13.7443 49.71C13.7443 49.0847 13.8889 48.5107 14.1783 47.988C14.4769 47.4653 14.8876 47.0547 15.4103 46.756C15.9423 46.448 16.5396 46.294 17.2023 46.294C17.8649 46.294 18.4576 46.448 18.9803 46.756C19.5123 47.0547 19.9229 47.4653 20.2123 47.988C20.5109 48.5107 20.6603 49.094 20.6603 49.738C20.6603 50.382 20.5109 50.97 20.2123 51.502C19.9229 52.0247 19.5123 52.44 18.9803 52.748C18.4483 53.0467 17.8463 53.196 17.1743 53.196ZM17.2023 52.188C17.6409 52.188 18.0376 52.0853 18.3923 51.88C18.7563 51.6747 19.0316 51.39 19.2183 51.026C19.4143 50.6527 19.5123 50.2233 19.5123 49.738C19.5123 49.2713 19.4143 48.856 19.2183 48.492C19.0223 48.128 18.7469 47.8433 18.3923 47.638C18.0376 47.4233 17.6409 47.316 17.2023 47.316C16.7636 47.316 16.3669 47.4233 16.0123 47.638C15.6576 47.8433 15.3823 48.128 15.1863 48.492C14.9903 48.856 14.8923 49.2667 14.8923 49.724C14.8923 50.2093 14.9903 50.6387 15.1863 51.012C15.3823 51.3853 15.6529 51.6747 15.9983 51.88C16.3436 52.0853 16.7449 52.188 17.2023 52.188ZM25.1898 53.182C24.6298 53.182 24.1492 53.0747 23.7478 52.86C23.3558 52.6453 23.0572 52.3233 22.8518 51.894C22.6558 51.4647 22.5578 50.9327 22.5578 50.298V46.476H23.6778V50.256C23.6778 50.6853 23.7292 51.04 23.8318 51.32C23.9438 51.6 24.1072 51.8147 24.3218 51.964C24.5458 52.104 24.8352 52.174 25.1898 52.174C25.5352 52.174 25.8198 52.0993 26.0438 51.95C26.2772 51.8007 26.4452 51.586 26.5478 51.306C26.6598 51.0167 26.7158 50.6667 26.7158 50.256V46.476H27.8358V50.298C27.8358 50.8953 27.7378 51.4087 27.5418 51.838C27.3458 52.2673 27.0518 52.5987 26.6598 52.832C26.2678 53.0653 25.7778 53.182 25.1898 53.182ZM30.329 53V47.526H29.237V46.476H30.329V44.068H31.449V46.476H32.639V47.526H31.449V53H30.329ZM36.6879 53.182C36.1279 53.182 35.6472 53.0747 35.2459 52.86C34.8539 52.6453 34.5552 52.3233 34.3499 51.894C34.1539 51.4647 34.0559 50.9327 34.0559 50.298V46.476H35.1759V50.256C35.1759 50.6853 35.2272 51.04 35.3299 51.32C35.4419 51.6 35.6052 51.8147 35.8199 51.964C36.0439 52.104 36.3332 52.174 36.6879 52.174C37.0332 52.174 37.3179 52.0993 37.5419 51.95C37.7752 51.8007 37.9432 51.586 38.0459 51.306C38.1579 51.0167 38.2139 50.6667 38.2139 50.256V46.476H39.3339V50.298C39.3339 50.8953 39.2359 51.4087 39.0399 51.838C38.8439 52.2673 38.5499 52.5987 38.1579 52.832C37.7659 53.0653 37.2759 53.182 36.6879 53.182ZM45.2431 53.168C44.9164 53.168 44.6084 53.1213 44.3191 53.028C44.0297 52.944 43.7591 52.8087 43.5071 52.622C43.2551 52.426 43.0264 52.1787 42.8211 51.88H42.8071V53H41.6871V41.52H42.8071V46.574C42.8071 46.6767 42.8071 46.7887 42.8071 46.91C42.8071 47.0313 42.8071 47.1527 42.8071 47.274V47.582H42.8211C43.0264 47.2927 43.2551 47.0547 43.5071 46.868C43.7591 46.672 44.0251 46.5273 44.3051 46.434C44.5944 46.3407 44.8977 46.294 45.2151 46.294C45.8217 46.294 46.3677 46.448 46.8531 46.756C47.3477 47.0547 47.7351 47.47 48.0151 48.002C48.3044 48.5247 48.4491 49.1033 48.4491 49.738C48.4491 50.382 48.3044 50.9653 48.0151 51.488C47.7351 52.0013 47.3477 52.412 46.8531 52.72C46.3677 53.0187 45.8311 53.168 45.2431 53.168ZM45.0331 52.174C45.4717 52.174 45.8637 52.0667 46.2091 51.852C46.5544 51.6373 46.8204 51.348 47.0071 50.984C47.2031 50.6107 47.3011 50.1953 47.3011 49.738C47.3011 49.2713 47.2031 48.856 47.0071 48.492C46.8204 48.1187 46.5591 47.8293 46.2231 47.624C45.8871 47.4093 45.4951 47.302 45.0471 47.302C44.6084 47.302 44.2117 47.4047 43.8571 47.61C43.5024 47.8153 43.2271 48.1047 43.0311 48.478C42.8351 48.8513 42.7371 49.2667 42.7371 49.724C42.7371 50.1907 42.8351 50.6107 43.0311 50.984C43.2271 51.3573 43.5024 51.6513 43.8571 51.866C44.2117 52.0713 44.6037 52.174 45.0331 52.174ZM53.1811 53.196C52.5464 53.196 51.9817 53.0513 51.4871 52.762C51.0017 52.4633 50.6237 52.0527 50.3531 51.53C50.0917 51.0073 49.9611 50.41 49.9611 49.738C49.9611 49.0753 50.0964 48.4827 50.3671 47.96C50.6377 47.4373 51.0111 47.0313 51.4871 46.742C51.9724 46.4433 52.5277 46.294 53.1531 46.294C53.7877 46.294 54.3337 46.4387 54.7911 46.728C55.2484 47.0173 55.5984 47.4187 55.8411 47.932C56.0931 48.436 56.2191 49.0053 56.2191 49.64C56.2191 49.696 56.2191 49.752 56.2191 49.808C56.2191 49.8547 56.2191 49.9013 56.2191 49.948H50.7031V49.024H55.0571C55.0291 48.7067 54.9311 48.4173 54.7631 48.156C54.6044 47.8853 54.3851 47.6753 54.1051 47.526C53.8344 47.3767 53.5217 47.302 53.1671 47.302C52.8217 47.302 52.5091 47.3767 52.2291 47.526C51.9491 47.666 51.7204 47.8713 51.5431 48.142C51.3751 48.4033 51.2631 48.702 51.2071 49.038L51.1371 49.934C51.1464 50.3727 51.2351 50.7647 51.4031 51.11C51.5804 51.446 51.8231 51.712 52.1311 51.908C52.4391 52.0947 52.8031 52.188 53.2231 52.188C53.6524 52.188 54.0164 52.0993 54.3151 51.922C54.6137 51.7353 54.8751 51.4693 55.0991 51.124L55.9951 51.656C55.8084 51.9827 55.5844 52.2627 55.3231 52.496C55.0711 52.72 54.7677 52.8927 54.4131 53.014C54.0584 53.1353 53.6477 53.196 53.1811 53.196Z" fill="black"/>
<defs>
<clipPath id="clip0_1094_1029">
<rect width="32" height="32" fill="white" transform="translate(15.5 2)"/>
</clipPath>
</defs>
</svg>
