<svg width="63" height="56" viewBox="0 0 63 56" fill="none" xmlns="http://www.w3.org/2000/svg">
<path d="M38.2637 2H32.8707V23.7971C32.8707 26.3942 30.7966 28.5276 28.2153 28.5276C25.6341 28.5276 23.5599 26.3942 23.5599 23.7971C23.5599 21.2464 25.588 19.1594 28.0771 19.0667V13.5942C22.5919 13.6869 18.167 18.1855 18.167 23.7971C18.167 29.4551 22.6841 34 28.2615 34C33.8387 34 38.3558 29.4087 38.3558 23.7971V12.6203C40.384 14.1044 42.873 14.9855 45.5003 15.0319V9.55942C41.4441 9.42029 38.2637 6.08116 38.2637 2Z" fill="black"/>
<path d="M15.936 53V43.536H13.374V42.444H19.632V43.536H17.084V53H15.936ZM21.3703 53V46.476H22.4903V53H21.3703ZM21.9303 44.446C21.7903 44.446 21.6597 44.4133 21.5383 44.348C21.4263 44.2733 21.333 44.18 21.2583 44.068C21.193 43.9467 21.1603 43.816 21.1603 43.676C21.1603 43.5453 21.193 43.424 21.2583 43.312C21.333 43.1907 21.4263 43.0973 21.5383 43.032C21.6597 42.9573 21.7857 42.92 21.9163 42.92C22.0657 42.92 22.1963 42.9527 22.3083 43.018C22.4297 43.0833 22.523 43.1767 22.5883 43.298C22.663 43.4193 22.7003 43.5453 22.7003 43.676C22.7003 43.816 22.663 43.9467 22.5883 44.068C22.523 44.18 22.4297 44.2733 22.3083 44.348C22.1963 44.4133 22.0703 44.446 21.9303 44.446ZM24.939 53V41.52H26.059V49.066L28.775 46.476H30.189L26.773 49.626L26.815 48.87L30.427 53H29.041L26.073 49.584L26.731 49.668L26.059 50.284V53H24.939ZM31.9013 53V47.526H30.8093V46.476H31.9013V44.068H33.0213V46.476H34.2113V47.526H33.0213V53H31.9013ZM38.6801 53.196C38.0175 53.196 37.4248 53.042 36.9021 52.734C36.3888 52.426 35.9828 52.0107 35.6841 51.488C35.3948 50.956 35.2501 50.3633 35.2501 49.71C35.2501 49.0847 35.3948 48.5107 35.6841 47.988C35.9828 47.4653 36.3935 47.0547 36.9161 46.756C37.4481 46.448 38.0455 46.294 38.7081 46.294C39.3708 46.294 39.9635 46.448 40.4861 46.756C41.0181 47.0547 41.4288 47.4653 41.7181 47.988C42.0168 48.5107 42.1661 49.094 42.1661 49.738C42.1661 50.382 42.0168 50.97 41.7181 51.502C41.4288 52.0247 41.0181 52.44 40.4861 52.748C39.9541 53.0467 39.3521 53.196 38.6801 53.196ZM38.7081 52.188C39.1468 52.188 39.5435 52.0853 39.8981 51.88C40.2621 51.6747 40.5375 51.39 40.7241 51.026C40.9201 50.6527 41.0181 50.2233 41.0181 49.738C41.0181 49.2713 40.9201 48.856 40.7241 48.492C40.5281 48.128 40.2528 47.8433 39.8981 47.638C39.5435 47.4233 39.1468 47.316 38.7081 47.316C38.2695 47.316 37.8728 47.4233 37.5181 47.638C37.1635 47.8433 36.8881 48.128 36.6921 48.492C36.4961 48.856 36.3981 49.2667 36.3981 49.724C36.3981 50.2093 36.4961 50.6387 36.6921 51.012C36.8881 51.3853 37.1588 51.6747 37.5041 51.88C37.8495 52.0853 38.2508 52.188 38.7081 52.188ZM44.1617 53V41.52H45.2817V49.066L47.9977 46.476H49.4117L45.9957 49.626L46.0377 48.87L49.6497 53H48.2637L45.2957 49.584L45.9537 49.668L45.2817 50.284V53H44.1617Z" fill="black"/>
</svg>
