<svg width="67" height="56" viewBox="0 0 67 56" fill="none" xmlns="http://www.w3.org/2000/svg">
<path d="M46.8337 10.0002C46.8337 8.5335 45.6337 7.3335 44.167 7.3335H22.8337C21.367 7.3335 20.167 8.5335 20.167 10.0002M46.8337 10.0002V26.0002C46.8337 27.4668 45.6337 28.6668 44.167 28.6668H22.8337C21.367 28.6668 20.167 27.4668 20.167 26.0002V10.0002M46.8337 10.0002L33.5003 19.3335L20.167 10.0002" stroke="black" stroke-width="2.5" stroke-linecap="round" stroke-linejoin="round"/>
<path d="M0.687781 53V41.884H0.743781L8.79378 51.054L8.44378 51.18V42.444H9.60578V53.504H9.56378L1.51378 44.348L1.84978 44.208V53H0.687781ZM15.101 53.196C14.4663 53.196 13.9017 53.0513 13.407 52.762C12.9217 52.4633 12.5437 52.0527 12.273 51.53C12.0117 51.0073 11.881 50.41 11.881 49.738C11.881 49.0753 12.0163 48.4827 12.287 47.96C12.5577 47.4373 12.931 47.0313 13.407 46.742C13.8923 46.4433 14.4477 46.294 15.073 46.294C15.7077 46.294 16.2537 46.4387 16.711 46.728C17.1683 47.0173 17.5183 47.4187 17.761 47.932C18.013 48.436 18.139 49.0053 18.139 49.64C18.139 49.696 18.139 49.752 18.139 49.808C18.139 49.8547 18.139 49.9013 18.139 49.948H12.623V49.024H16.977C16.949 48.7067 16.851 48.4173 16.683 48.156C16.5243 47.8853 16.305 47.6753 16.025 47.526C15.7543 47.3767 15.4417 47.302 15.087 47.302C14.7417 47.302 14.429 47.3767 14.149 47.526C13.869 47.666 13.6403 47.8713 13.463 48.142C13.295 48.4033 13.183 48.702 13.127 49.038L13.057 49.934C13.0663 50.3727 13.155 50.7647 13.323 51.11C13.5003 51.446 13.743 51.712 14.051 51.908C14.359 52.0947 14.723 52.188 15.143 52.188C15.5723 52.188 15.9363 52.0993 16.235 51.922C16.5337 51.7353 16.795 51.4693 17.019 51.124L17.915 51.656C17.7283 51.9827 17.5043 52.2627 17.243 52.496C16.991 52.72 16.6877 52.8927 16.333 53.014C15.9783 53.1353 15.5677 53.196 15.101 53.196ZM21.8528 53.392L18.6608 46.476H19.9208L21.8528 50.97L23.8408 46.014H23.8688L25.8568 50.97L27.7748 46.476H29.0348L25.8428 53.378H25.8148L23.8548 48.506L21.8808 53.392H21.8528ZM32.0565 53.196C31.4872 53.196 31.0019 53.0653 30.6005 52.804C30.1992 52.5333 29.9099 52.188 29.7325 51.768L30.5865 51.138C30.7359 51.4647 30.9319 51.7213 31.1745 51.908C31.4265 52.0853 31.7205 52.174 32.0565 52.174C32.2805 52.174 32.4719 52.1367 32.6305 52.062C32.7985 51.978 32.9199 51.866 32.9945 51.726C33.0785 51.5767 33.1205 51.4133 33.1205 51.236C33.1205 51.0493 33.0739 50.8907 32.9805 50.76C32.8965 50.62 32.7519 50.4893 32.5465 50.368C32.3505 50.2373 32.0659 50.088 31.6925 49.92C31.3099 49.7427 31.0019 49.5653 30.7685 49.388C30.5352 49.2013 30.3625 49.0007 30.2505 48.786C30.1479 48.562 30.0965 48.3007 30.0965 48.002C30.0965 47.6567 30.1805 47.3533 30.3485 47.092C30.5259 46.8307 30.7592 46.6347 31.0485 46.504C31.3472 46.364 31.6785 46.294 32.0425 46.294C32.4812 46.294 32.8639 46.3827 33.1905 46.56C33.5265 46.7373 33.7832 46.9753 33.9605 47.274L33.1345 47.932C33.1345 47.932 33.1299 47.932 33.1205 47.932C33.1205 47.9227 33.1205 47.918 33.1205 47.918C33.0085 47.7407 32.8545 47.596 32.6585 47.484C32.4719 47.372 32.2619 47.316 32.0285 47.316C31.8605 47.316 31.7112 47.344 31.5805 47.4C31.4592 47.4467 31.3612 47.5213 31.2865 47.624C31.2119 47.7267 31.1745 47.8527 31.1745 48.002C31.1745 48.142 31.2165 48.2727 31.3005 48.394C31.3939 48.506 31.5385 48.618 31.7345 48.73C31.9399 48.842 32.2432 48.982 32.6445 49.15C33.0272 49.3273 33.3305 49.5093 33.5545 49.696C33.7879 49.8827 33.9512 50.0973 34.0445 50.34C34.1472 50.5827 34.1985 50.8673 34.1985 51.194C34.1985 51.5767 34.1099 51.922 33.9325 52.23C33.7552 52.5287 33.5032 52.7667 33.1765 52.944C32.8592 53.112 32.4859 53.196 32.0565 53.196ZM36.0367 53V41.52H37.1567V53H36.0367ZM42.3627 53.196C41.7281 53.196 41.1634 53.0513 40.6687 52.762C40.1834 52.4633 39.8054 52.0527 39.5347 51.53C39.2734 51.0073 39.1427 50.41 39.1427 49.738C39.1427 49.0753 39.2781 48.4827 39.5487 47.96C39.8194 47.4373 40.1927 47.0313 40.6687 46.742C41.1541 46.4433 41.7094 46.294 42.3347 46.294C42.9694 46.294 43.5154 46.4387 43.9727 46.728C44.4301 47.0173 44.7801 47.4187 45.0227 47.932C45.2747 48.436 45.4007 49.0053 45.4007 49.64C45.4007 49.696 45.4007 49.752 45.4007 49.808C45.4007 49.8547 45.4007 49.9013 45.4007 49.948H39.8847V49.024H44.2387C44.2107 48.7067 44.1127 48.4173 43.9447 48.156C43.7861 47.8853 43.5667 47.6753 43.2867 47.526C43.0161 47.3767 42.7034 47.302 42.3487 47.302C42.0034 47.302 41.6907 47.3767 41.4107 47.526C41.1307 47.666 40.9021 47.8713 40.7247 48.142C40.5567 48.4033 40.4447 48.702 40.3887 49.038L40.3187 49.934C40.3281 50.3727 40.4167 50.7647 40.5847 51.11C40.7621 51.446 41.0047 51.712 41.3127 51.908C41.6207 52.0947 41.9847 52.188 42.4047 52.188C42.8341 52.188 43.1981 52.0993 43.4967 51.922C43.7954 51.7353 44.0567 51.4693 44.2807 51.124L45.1767 51.656C44.9901 51.9827 44.7661 52.2627 44.5047 52.496C44.2527 52.72 43.9494 52.8927 43.5947 53.014C43.2401 53.1353 42.8294 53.196 42.3627 53.196ZM47.5243 53V47.526H46.4323V46.476H47.5243V44.068H48.6443V46.476H49.8343V47.526H48.6443V53H47.5243ZM51.4892 53V47.526H50.3972V46.476H51.4892V44.068H52.6092V46.476H53.7992V47.526H52.6092V53H51.4892ZM58.058 53.196C57.4234 53.196 56.8587 53.0513 56.364 52.762C55.8787 52.4633 55.5007 52.0527 55.23 51.53C54.9687 51.0073 54.838 50.41 54.838 49.738C54.838 49.0753 54.9734 48.4827 55.244 47.96C55.5147 47.4373 55.888 47.0313 56.364 46.742C56.8494 46.4433 57.4047 46.294 58.03 46.294C58.6647 46.294 59.2107 46.4387 59.668 46.728C60.1254 47.0173 60.4754 47.4187 60.718 47.932C60.97 48.436 61.096 49.0053 61.096 49.64C61.096 49.696 61.096 49.752 61.096 49.808C61.096 49.8547 61.096 49.9013 61.096 49.948H55.58V49.024H59.934C59.906 48.7067 59.808 48.4173 59.64 48.156C59.4814 47.8853 59.262 47.6753 58.982 47.526C58.7114 47.3767 58.3987 47.302 58.044 47.302C57.6987 47.302 57.386 47.3767 57.106 47.526C56.826 47.666 56.5974 47.8713 56.42 48.142C56.252 48.4033 56.14 48.702 56.084 49.038L56.014 49.934C56.0234 50.3727 56.112 50.7647 56.28 51.11C56.4574 51.446 56.7 51.712 57.008 51.908C57.316 52.0947 57.68 52.188 58.1 52.188C58.5294 52.188 58.8934 52.0993 59.192 51.922C59.4907 51.7353 59.752 51.4693 59.976 51.124L60.872 51.656C60.6854 51.9827 60.4614 52.2627 60.2 52.496C59.948 52.72 59.6447 52.8927 59.29 53.014C58.9354 53.1353 58.5247 53.196 58.058 53.196ZM63.0797 53V46.476H64.1997V47.288H64.2277C64.3677 47.0733 64.5077 46.896 64.6477 46.756C64.7877 46.6067 64.9417 46.4947 65.1097 46.42C65.2777 46.336 65.4737 46.294 65.6977 46.294C65.875 46.294 66.0523 46.322 66.2297 46.378C66.407 46.434 66.5843 46.5133 66.7617 46.616L66.2577 47.638C66.1363 47.554 66.0103 47.4933 65.8797 47.456C65.7583 47.4093 65.6277 47.386 65.4877 47.386C65.217 47.386 64.9837 47.4653 64.7877 47.624C64.601 47.7733 64.4563 48.002 64.3537 48.31C64.251 48.618 64.1997 48.996 64.1997 49.444V53H63.0797Z" fill="black"/>
</svg>
