<?xml version="1.0" encoding="UTF-8" standalone="no"?>
<!-- Created with Inkscape (http://www.inkscape.org/) -->

<svg
   xmlns:dc="http://purl.org/dc/elements/1.1/"
   xmlns:cc="http://creativecommons.org/ns#"
   xmlns:rdf="http://www.w3.org/1999/02/22-rdf-syntax-ns#"
   xmlns:svg="http://www.w3.org/2000/svg"
   xmlns="http://www.w3.org/2000/svg"
   xmlns:sodipodi="http://sodipodi.sourceforge.net/DTD/sodipodi-0.dtd"
   xmlns:inkscape="http://www.inkscape.org/namespaces/inkscape"
   width="40.340122mm"
   height="40.340023mm"
   viewBox="0 0 40.340122 40.340023"
   version="1.1"
   id="svg8"
   sodipodi:docname="logo.svg"
   inkscape:version="0.92.3 (2405546, 2018-03-11)">
  <defs
     id="defs2">
    <clipPath
       id="clipPath4553"
       clipPathUnits="userSpaceOnUse">
      <path
         inkscape:connector-curvature="0"
         id="path4551"
         d="M 0,0 H 841.89 V 595.276 H 0 Z" />
    </clipPath>
  </defs>
  <sodipodi:namedview
     id="base"
     pagecolor="#ffffff"
     bordercolor="#666666"
     borderopacity="1.0"
     inkscape:pageopacity="0.0"
     inkscape:pageshadow="2"
     inkscape:zoom="1.979899"
     inkscape:cx="9.7106812"
     inkscape:cy="55.936587"
     inkscape:document-units="mm"
     inkscape:current-layer="layer1"
     showgrid="false"
     fit-margin-top="0"
     fit-margin-left="0"
     fit-margin-right="0"
     fit-margin-bottom="0"
     inkscape:window-width="1863"
     inkscape:window-height="873"
     inkscape:window-x="55"
     inkscape:window-y="27"
     inkscape:window-maximized="1" />
  <metadata
     id="metadata5">
    <rdf:RDF>
      <cc:Work
         rdf:about="">
        <dc:format>image/svg+xml</dc:format>
        <dc:type
           rdf:resource="http://purl.org/dc/dcmitype/StillImage" />
        <dc:title></dc:title>
      </cc:Work>
    </rdf:RDF>
  </metadata>
  <g
     inkscape:label="Layer 1"
     inkscape:groupmode="layer"
     id="layer1"
     transform="translate(-76.820487,-78.369569)">
    <g
       transform="matrix(0.35277777,0,0,-0.35277777,-68.179554,203.53958)"
       inkscape:label="AUFTRITT_CLUB_CONCERT"
       id="g4545">
      <g
         id="g4547">
        <g
           clip-path="url(#clipPath4553)"
           id="g4549">
          <g
             transform="translate(417.0435,331.6478)"
             id="g4555">
            <path
               style="fill:#ffeb3d;fill-opacity:1;fill-rule:nonzero;stroke:none;stroke-width:1.33333325"
               d="M 110.79492 0 C 109.67954 -0.0053681639 108.54462 0.15479688 107.42188 0.49804688 L 8.0253906 30.886719 C 2.0373908 32.717385 -1.3326198 39.055589 0.49804688 45.044922 L 5.2949219 60.732422 C 5.7963056 59.178996 6.5722085 57.838797 7.6367188 56.724609 C 9.6624388 54.618397 12.43244 53.564453 15.947266 53.564453 C 17.087572 53.564453 18.200465 53.684305 19.287109 53.925781 C 20.373754 54.153842 21.427698 54.503118 22.447266 54.972656 L 22.447266 58.433594 C 21.400867 57.856733 20.346923 57.428207 19.287109 57.146484 C 18.240711 56.851346 17.180651 56.703125 16.107422 56.703125 C 13.706072 56.703125 11.841793 57.468695 10.513672 58.998047 C 9.1855508 60.513983 8.5214844 62.646335 8.5214844 65.396484 C 8.5214844 68.146634 9.1855508 70.287055 10.513672 71.816406 C 11.841793 73.332342 13.706072 74.089844 16.107422 74.089844 C 17.180651 74.089844 18.240711 73.949691 19.287109 73.667969 C 20.346923 73.372831 21.400867 72.936236 22.447266 72.359375 L 22.447266 75.78125 C 21.414283 76.264203 20.340038 76.625711 19.226562 76.867188 C 18.126503 77.108664 16.952707 77.228516 15.705078 77.228516 C 13.468564 77.228516 11.540865 76.756261 9.9101562 75.830078 L 30.886719 144.43945 C 32.717385 150.42879 39.055589 153.79942 45.044922 151.96875 L 144.43945 121.58008 C 150.42879 119.74941 153.7988 113.41121 151.9668 107.42188 L 121.58008 8.0273438 C 120.09266 3.1610105 115.62823 0.023262044 110.79492 0 z M 28.111328 45.333984 L 31.814453 45.333984 L 31.814453 76.646484 L 28.111328 76.646484 L 28.111328 45.333984 z M 61.763672 45.333984 L 65.486328 45.333984 L 65.486328 57.529297 C 66.264419 56.18776 67.243276 55.194719 68.423828 54.550781 C 69.617796 53.893428 71.041316 53.564453 72.691406 53.564453 C 75.428141 53.564453 77.647811 54.65093 79.351562 56.824219 C 81.068729 58.997508 81.927734 61.854828 81.927734 65.396484 C 81.927734 68.938141 81.068729 71.795461 79.351562 73.96875 C 77.647811 76.142039 75.428141 77.228516 72.691406 77.228516 C 71.041316 77.228516 69.617796 76.907609 68.423828 76.263672 C 67.243276 75.606319 66.264419 74.607161 65.486328 73.265625 L 65.486328 76.646484 L 61.763672 76.646484 L 61.763672 45.333984 z M 38.154297 54.107422 L 41.857422 54.107422 L 41.857422 67.611328 C 41.857422 69.744371 42.273716 71.346693 43.105469 72.419922 C 43.937221 73.479736 45.184151 74.009766 46.847656 74.009766 C 48.846546 74.009766 50.424404 73.372116 51.578125 72.097656 C 52.745262 70.823197 53.328125 69.086839 53.328125 66.886719 L 53.328125 54.107422 L 57.03125 54.107422 L 57.03125 76.646484 L 53.328125 76.646484 L 53.328125 73.183594 C 52.429296 74.551961 51.383421 75.573372 50.189453 76.244141 C 49.008901 76.901493 47.634051 77.228516 46.064453 77.228516 C 43.475288 77.228516 41.509505 76.424297 40.167969 74.814453 C 38.826432 73.204609 38.154297 70.850902 38.154297 67.751953 L 38.154297 54.107422 z M 71.785156 56.664062 C 69.826513 56.664062 68.283141 57.441865 67.15625 58.998047 C 66.042775 60.540814 65.486328 62.673165 65.486328 65.396484 C 65.486328 68.119803 66.042775 70.260224 67.15625 71.816406 C 68.283141 73.359173 69.826513 74.130859 71.785156 74.130859 C 73.743799 74.130859 75.279103 73.359173 76.392578 71.816406 C 77.519469 70.260224 78.083984 68.119803 78.083984 65.396484 C 78.083984 62.673165 77.519469 60.540814 76.392578 58.998047 C 75.279103 57.441865 73.743799 56.664063 71.785156 56.664062 z "
               transform="matrix(0.75000002,0,0,-0.75000002,-6.0197527,23.164837)"
               id="path4557" />
          </g>
        </g>
      </g>
    </g>
  </g>
</svg>
