<?xml version="1.0" encoding="UTF-8" standalone="no"?>
<svg width="18px" height="18px" viewBox="0 0 18 18" version="1.1" xmlns="http://www.w3.org/2000/svg" xmlns:xlink="http://www.w3.org/1999/xlink">
    <!-- Generator: Sketch 3.8.3 (29802) - http://www.bohemiancoding.com/sketch -->
    <title>Lupe</title>
    <desc>Created with Sketch.</desc>
    <defs/>
    <g id="Page-1" stroke="none" stroke-width="1" fill="none" fill-rule="evenodd">
        <g id="Lupe" fill="#000000">
            <path d="M17.8745946,16.0420469 L12.2517321,10.4066253 C12.9882732,9.3083482 13.365526,8.03002572 13.365526,6.69768961 C13.365526,4.91523996 12.6649137,3.22281301 11.4074046,1.96249507 C10.1498954,0.702177137 8.47920465,0 6.68276299,0 C4.90428574,0 3.21563058,0.702177137 1.95812141,1.96249507 C0.700612249,3.22281301 0,4.89723542 0,6.69768961 C0,8.49814381 0.700612249,10.1725662 1.95812141,11.4328841 C3.21563058,12.6932021 4.88632133,13.3953792 6.68276299,13.3953792 C8.03009424,13.3953792 9.32353223,12.9992793 10.4193616,12.2430885 L16.0422241,17.8785102 C16.2398326,18.0765601 16.5811566,18.0225465 16.814694,17.7884875 L17.7668081,16.8342467 C18.0362743,16.5821832 18.0722031,16.2400969 17.8745946,16.0420469 L17.8745946,16.0420469 Z M6.70072741,11.5769205 C4.02402933,11.5769205 1.8323705,9.39837091 1.8323705,6.69768961 C1.8323705,3.99700832 4.02402933,1.81845874 6.70072741,1.81845874 C9.37742548,1.81845874 11.5690843,4.01501286 11.5690843,6.69768961 C11.5690843,9.38036637 9.3953899,11.5769205 6.70072741,11.5769205 L6.70072741,11.5769205 Z" id="Shape"/>
        </g>
    </g>
</svg>